<svg width="32" height="20" viewBox="0 0 32 20" fill="none" xmlns="http://www.w3.org/2000/svg">
<g clip-path="url(#clip0_358_951)">
<path fill-rule="evenodd" clip-rule="evenodd" d="M23.3364 7.15816C23.6376 6.96484 23.9957 6.91187 24.3321 7.01088C24.6685 7.10989 24.9556 7.35278 25.1302 7.68613L27.6353 12.4698C27.8098 12.8033 27.8575 13.1999 27.7679 13.5723C27.6784 13.9448 27.4588 14.2625 27.1576 14.4558C26.8564 14.649 26.4981 14.7018 26.1618 14.6026C25.8254 14.5034 25.5383 14.2603 25.3638 13.9268L22.8596 9.1441C22.685 8.81073 22.6371 8.41422 22.7265 8.04179C22.816 7.66936 23.0354 7.35152 23.3364 7.15816ZM18.6377 9.64785C18.9804 9.58113 19.3331 9.66784 19.6181 9.88893C19.9031 10.11 20.0972 10.4474 20.1576 10.8268L20.9346 15.7074C20.9949 16.087 20.9166 16.4776 20.7168 16.7933C20.517 17.1089 20.2121 17.3238 19.8693 17.3906C19.5264 17.4574 19.1736 17.3707 18.8885 17.1495C18.6034 16.9283 18.4093 16.5907 18.3489 16.2111L17.5728 11.3315C17.5429 11.1436 17.5466 10.9509 17.5839 10.7646C17.6212 10.5782 17.6913 10.4018 17.7902 10.2455C17.8891 10.0891 18.0148 9.95585 18.1603 9.85331C18.3057 9.75077 18.4679 9.68096 18.6377 9.64785ZM13.3501 9.63623C13.5199 9.66922 13.6821 9.73893 13.8275 9.84135C13.973 9.94378 14.0988 10.0769 14.1978 10.2332C14.2967 10.3894 14.3669 10.5658 14.4043 10.7521C14.4418 10.9383 14.4457 11.131 14.4158 11.3189L13.6388 16.2111C13.5726 16.5844 13.3768 16.9141 13.0934 17.1293C12.8101 17.3446 12.4618 17.4282 12.1234 17.3622C11.785 17.2963 11.4834 17.086 11.2835 16.7766C11.0835 16.4672 11.0012 16.0833 11.0541 15.7074L11.8302 10.8152C11.8906 10.4357 12.0846 10.0984 12.3697 9.8773C12.6547 9.65622 13.0073 9.5695 13.3501 9.63623ZM8.64957 7.15623C8.79891 7.25156 8.92981 7.37853 9.03482 7.52989C9.13983 7.68124 9.21688 7.85402 9.26157 8.03834C9.30626 8.22267 9.31771 8.41494 9.29528 8.60417C9.27284 8.7934 9.21696 8.97588 9.13082 9.14119L6.6257 13.9491C6.45165 14.283 6.16493 14.5266 5.82862 14.6265C5.49231 14.7263 5.13395 14.6741 4.83238 14.4814C4.53082 14.2887 4.31074 13.9713 4.22057 13.599C4.1304 13.2266 4.17752 12.8299 4.35157 12.496L6.8567 7.68904C6.94281 7.5237 7.05749 7.37877 7.1942 7.26251C7.33091 7.14625 7.48696 7.06095 7.65345 7.01147C7.81994 6.962 7.9936 6.94931 8.16452 6.97415C8.33543 6.99899 8.50026 7.06086 8.64957 7.15623Z" fill="#AAB2F8"/>
<path fill-rule="evenodd" clip-rule="evenodd" d="M4.67587 4.57253C4.9466 4.33046 5.29309 4.21733 5.63914 4.25802C5.98519 4.29871 6.30248 4.4899 6.52125 4.78953C8.2135 7.10969 11.2436 9.95297 16.0001 9.95297C20.7566 9.95297 23.7867 7.10969 25.479 4.78953C25.5873 4.64107 25.7209 4.51767 25.8723 4.4264C26.0237 4.33512 26.1898 4.27775 26.3612 4.25755C26.5326 4.23735 26.7059 4.25473 26.8713 4.3087C27.0366 4.36266 27.1907 4.45214 27.3248 4.57205C27.4589 4.69195 27.5704 4.83992 27.6528 5.00751C27.7352 5.1751 27.7871 5.35903 27.8053 5.54879C27.8235 5.73856 27.8079 5.93044 27.7591 6.11349C27.7104 6.29654 27.6295 6.46716 27.5212 6.61563C25.5385 9.33297 21.8311 12.8592 16.0001 12.8592C10.1691 12.8592 6.46262 9.33297 4.479 6.61563C4.37065 6.46712 4.28979 6.29644 4.24104 6.11332C4.1923 5.93021 4.17662 5.73826 4.1949 5.54843C4.21318 5.35861 4.26507 5.17463 4.3476 5.00702C4.43012 4.8394 4.54167 4.69143 4.67587 4.57156V4.57253Z" fill="#AAB2F8"/>
</g>
<defs>
<clipPath id="clip0_358_951">
<rect width="32" height="20" fill="white"/>
</clipPath>
</defs>
</svg>
