<svg width="53" height="53" viewBox="0 0 53 53" fill="none" xmlns="http://www.w3.org/2000/svg">
<rect width="53" height="53" rx="13" fill="#3C37A9"/>
<g filter="url(#filter0_d_369_127)">
<path fill-rule="evenodd" clip-rule="evenodd" d="M40.0346 29.8489C38.8768 29.182 38.0974 27.932 38.0973 26.5C38.0973 25.0674 38.8774 23.8171 40.0358 23.1504C40.8699 22.6705 41.2185 21.6663 40.861 20.7728C40.589 20.0926 40.2652 19.4235 39.8881 18.7705C39.5111 18.1174 39.0935 17.5025 38.6405 16.9267C38.0454 16.1705 37.0015 15.9702 36.1688 16.4526C35.0122 17.1226 33.5394 17.1729 32.2988 16.4567C31.0586 15.7406 30.3658 14.4406 30.3672 13.1045C30.3683 12.1437 29.6753 11.3411 28.7246 11.2022C27.2505 10.9863 25.7529 10.9848 24.2784 11.1979C23.3263 11.3357 22.6316 12.1398 22.6333 13.1018C22.6357 14.4388 21.9428 15.7401 20.7018 16.4567C19.4607 17.1732 17.9873 17.1225 16.8306 16.452C15.9982 15.9695 14.9546 16.1691 14.3591 16.9247C13.4374 18.0952 12.6899 19.3929 12.1398 20.7775C11.7849 21.6702 12.1334 22.6717 12.9659 23.1511C14.1238 23.818 14.9033 25.0679 14.9033 26.5C14.9033 27.9326 14.1232 29.1829 12.9648 29.8496C12.1307 30.3295 11.7821 31.3337 12.1395 32.2272C12.4156 32.917 12.7408 33.5862 13.1124 34.2295C13.4838 34.8731 13.9007 35.4892 14.3601 36.0732C14.9551 36.8295 15.9991 37.0297 16.8318 36.5473C17.9883 35.8774 19.4611 35.827 20.7018 36.5433C21.942 37.2594 22.6347 38.5594 22.6333 39.8955C22.6323 40.8562 23.3253 41.6588 24.2759 41.7978C25.75 42.0137 27.2476 42.0151 28.7221 41.8021C29.6742 41.6642 30.369 40.8602 30.3672 39.8981C30.3648 38.5611 31.0577 37.2598 32.2988 36.5433C33.5397 35.8268 35.0131 35.8774 36.1699 36.548C37.0022 37.0305 38.0459 36.8309 38.6413 36.0752C39.563 34.9047 40.3106 33.607 40.8607 32.2225C41.2157 31.3299 40.8671 30.3283 40.0346 29.8489ZM29.1312 31.0568C26.6146 32.5098 23.3965 31.6476 21.9435 29.1309C20.4906 26.6143 21.3528 23.3962 23.8695 21.9432C26.3862 20.4903 29.6042 21.3525 31.0571 23.8692C32.5101 26.3858 31.6479 29.6038 29.1312 31.0568Z" fill="url(#paint0_linear_369_127)"/>
</g>
<defs>
<filter id="filter0_d_369_127" x="6" y="10" width="41" height="41" filterUnits="userSpaceOnUse" color-interpolation-filters="sRGB">
<feFlood flood-opacity="0" result="BackgroundImageFix"/>
<feColorMatrix in="SourceAlpha" type="matrix" values="0 0 0 0 0 0 0 0 0 0 0 0 0 0 0 0 0 0 127 0" result="hardAlpha"/>
<feOffset dy="4"/>
<feGaussianBlur stdDeviation="2"/>
<feComposite in2="hardAlpha" operator="out"/>
<feColorMatrix type="matrix" values="0 0 0 0 0 0 0 0 0 0 0 0 0 0 0 0 0 0 0.25 0"/>
<feBlend mode="normal" in2="BackgroundImageFix" result="effect1_dropShadow_369_127"/>
<feBlend mode="normal" in="SourceGraphic" in2="effect1_dropShadow_369_127" result="shape"/>
</filter>
<linearGradient id="paint0_linear_369_127" x1="26.5003" y1="11.0392" x2="26.5003" y2="41.9608" gradientUnits="userSpaceOnUse">
<stop stop-color="white"/>
<stop offset="1" stop-color="#D2D2D2"/>
</linearGradient>
</defs>
</svg>
