<svg width="32" height="20" viewBox="0 0 32 20" fill="none" xmlns="http://www.w3.org/2000/svg">
<path d="M30.2811 9.41273C30.0204 9.05406 23.8124 0.629395 15.9991 0.629395C8.18577 0.629395 1.97777 9.05339 1.71777 9.41206C1.59399 9.58301 1.52734 9.78867 1.52734 9.99973C1.52734 10.2108 1.59399 10.4164 1.71777 10.5874C1.97777 10.9461 8.18577 19.3707 15.9991 19.3707C23.8124 19.3707 30.0204 10.9461 30.2811 10.5881C30.4052 10.4172 30.472 10.2115 30.472 10.0004C30.472 9.78927 30.4052 9.58355 30.2811 9.41273ZM15.9991 17.3707C10.3124 17.3707 5.3071 11.8414 3.79844 10.0001C5.3071 8.15873 10.3124 2.62939 15.9991 2.62939C21.6858 2.62939 26.6911 8.15873 28.2004 10.0001C26.6911 11.8414 21.6858 17.3707 15.9991 17.3707ZM18.8131 6.58806C18.5927 6.73562 18.44 6.96462 18.3883 7.22475C18.3367 7.48488 18.3905 7.75487 18.5378 7.97539C18.8724 8.47606 19.0498 9.06139 19.0498 9.66739C19.0498 11.3487 17.6811 12.7174 15.9998 12.7174C14.3184 12.7174 12.9498 11.3487 12.9498 9.66739C12.9498 7.98606 14.3178 6.61739 15.9998 6.61739C16.265 6.61739 16.5193 6.51204 16.7069 6.3245C16.8944 6.13696 16.9998 5.88261 16.9998 5.61739C16.9998 5.35218 16.8944 5.09782 16.7069 4.91029C16.5193 4.72275 16.265 4.61739 15.9998 4.61739C13.2151 4.61739 10.9498 6.88273 10.9498 9.66739C10.9498 12.4521 13.2151 14.7174 15.9998 14.7174C18.7844 14.7174 21.0498 12.4521 21.0498 9.66739C21.0498 8.66473 20.7564 7.69539 20.2011 6.86406C20.1281 6.75473 20.0344 6.66086 19.9251 6.5878C19.8158 6.51475 19.6932 6.46395 19.5643 6.43832C19.4354 6.41269 19.3027 6.41272 19.1738 6.43841C19.0449 6.46411 18.9223 6.51496 18.8131 6.58806Z" fill="#AAB2F8"/>
</svg>
