<svg width="11" height="6" viewBox="0 0 11 6" fill="none" xmlns="http://www.w3.org/2000/svg">
<path d="M5.80176 5.87341L10.8756 0.734858C11.0417 0.566499 11.0415 0.293923 10.8747 0.125846C10.708 -0.0421 10.438 -0.041666 10.2717 0.126714L5.49988 4.95941L0.728045 0.126541C0.561753 -0.0418178 0.291883 -0.0422518 0.125163 0.125673C0.0853786 0.165649 0.0538187 0.213181 0.0323038 0.265529C0.010788 0.317878 -0.000259395 0.374009 -0.00020122 0.430689C-0.000270838 0.487163 0.0106907 0.543097 0.0320549 0.595287C0.0534191 0.647478 0.0847673 0.694899 0.124303 0.734837L5.19802 5.87341C5.2779 5.9545 5.38661 6 5.49988 6C5.61315 6 5.72173 5.95437 5.80176 5.87341Z" fill="#2A2C3F"/>
</svg>
