<svg width="30" height="31" viewBox="0 0 30 31" fill="none" xmlns="http://www.w3.org/2000/svg">
<path d="M26.5128 8.64313C26.3647 6.17984 24.3078 4.25 21.8305 4.25H20.6244V3.3125C20.6244 3.06386 20.5256 2.8254 20.3498 2.64959C20.174 2.47377 19.9355 2.375 19.6869 2.375C19.4382 2.375 19.1998 2.47377 19.024 2.64959C18.8481 2.8254 18.7494 3.06386 18.7494 3.3125V4.25H11.2494V3.3125C11.2494 3.06386 11.1506 2.8254 10.9748 2.64959C10.799 2.47377 10.5605 2.375 10.3119 2.375C10.0632 2.375 9.82477 2.47377 9.64895 2.64959C9.47314 2.8254 9.37437 3.06386 9.37437 3.3125V4.25H8.16827C5.69046 4.25 3.63359 6.17984 3.48593 8.64313C3.20796 13.2762 3.21312 17.9759 3.5014 22.6114C3.64765 24.9655 5.53343 26.8512 7.88749 26.9975C10.2467 27.1442 12.6228 27.2173 14.9989 27.2173C17.3745 27.2173 19.7511 27.1442 22.1103 26.9975C24.4644 26.8512 26.3501 24.9655 26.4964 22.6114C26.7852 17.9783 26.7903 13.2791 26.5128 8.64313ZM24.6256 22.4952C24.5822 23.1787 24.291 23.823 23.8067 24.3073C23.3224 24.7917 22.6781 25.0828 21.9945 25.1262C17.353 25.4145 12.6458 25.4145 8.00421 25.1262C7.32065 25.0828 6.67636 24.7917 6.19204 24.3073C5.70771 23.823 5.41656 23.1787 5.37312 22.4952C5.15338 18.9178 5.10379 15.3321 5.22452 11.75H24.7747C24.8928 15.3313 24.8473 18.9327 24.6256 22.4952ZM10.3119 8C10.5605 8 10.799 7.90123 10.9748 7.72541C11.1506 7.5496 11.2494 7.31114 11.2494 7.0625V6.125H18.7494V7.0625C18.7494 7.31114 18.8481 7.5496 19.024 7.72541C19.1998 7.90123 19.4382 8 19.6869 8C19.9355 8 20.174 7.90123 20.3498 7.72541C20.5256 7.5496 20.6244 7.31114 20.6244 7.0625V6.125H21.8305C23.3178 6.125 24.5525 7.28047 24.6411 8.75516C24.6631 9.12734 24.6725 9.50187 24.6908 9.875H5.30796C5.32671 9.50187 5.33562 9.12734 5.35765 8.75516C5.44624 7.28047 6.68046 6.125 8.16827 6.125H9.37437V7.0625C9.37437 7.31114 9.47314 7.5496 9.64895 7.72541C9.82477 7.90123 10.0632 8 10.3119 8Z" fill="black"/>
<path d="M10.3125 17.375C11.0892 17.375 11.7188 16.7454 11.7188 15.9688C11.7188 15.1921 11.0892 14.5625 10.3125 14.5625C9.53585 14.5625 8.90625 15.1921 8.90625 15.9688C8.90625 16.7454 9.53585 17.375 10.3125 17.375Z" fill="black"/>
<path d="M15 17.375C15.7767 17.375 16.4062 16.7454 16.4062 15.9688C16.4062 15.1921 15.7767 14.5625 15 14.5625C14.2233 14.5625 13.5938 15.1921 13.5938 15.9688C13.5938 16.7454 14.2233 17.375 15 17.375Z" fill="black"/>
<path d="M10.3125 22.0625C11.0892 22.0625 11.7188 21.4329 11.7188 20.6562C11.7188 19.8796 11.0892 19.25 10.3125 19.25C9.53585 19.25 8.90625 19.8796 8.90625 20.6562C8.90625 21.4329 9.53585 22.0625 10.3125 22.0625Z" fill="black"/>
<path d="M19.6875 17.375C20.4642 17.375 21.0938 16.7454 21.0938 15.9688C21.0938 15.1921 20.4642 14.5625 19.6875 14.5625C18.9108 14.5625 18.2812 15.1921 18.2812 15.9688C18.2812 16.7454 18.9108 17.375 19.6875 17.375Z" fill="black"/>
<path d="M19.6875 22.0625C20.4642 22.0625 21.0938 21.4329 21.0938 20.6562C21.0938 19.8796 20.4642 19.25 19.6875 19.25C18.9108 19.25 18.2812 19.8796 18.2812 20.6562C18.2812 21.4329 18.9108 22.0625 19.6875 22.0625Z" fill="black"/>
<path d="M15 22.0625C15.7767 22.0625 16.4062 21.4329 16.4062 20.6562C16.4062 19.8796 15.7767 19.25 15 19.25C14.2233 19.25 13.5938 19.8796 13.5938 20.6562C13.5938 21.4329 14.2233 22.0625 15 22.0625Z" fill="black"/>
</svg>
