<svg width="19" height="19" viewBox="0 0 19 19" fill="none" xmlns="http://www.w3.org/2000/svg">
<rect width="19" height="19" rx="6" fill="#FF5D25"/>
<g clip-path="url(#clip0_358_2066)">
<path d="M8.69949 13.9444C8.67608 13.972 8.64727 13.9945 8.61483 14.0106C8.58239 14.0266 8.547 14.0359 8.51086 14.0377C8.47471 14.0396 8.43857 14.034 8.40466 14.0213C8.37075 14.0087 8.33979 13.9892 8.31369 13.9642L4.08715 9.9639C4.03344 9.91276 4.00215 9.84245 4.00011 9.76832C3.99806 9.6942 4.02543 9.62227 4.07623 9.56825L5.42283 8.14532C5.47396 8.09162 5.54427 8.06033 5.6184 8.05828C5.69252 8.05624 5.76445 8.0836 5.81847 8.1344L8.12726 10.3195C8.15336 10.3445 8.18433 10.364 8.21824 10.3766C8.25215 10.3893 8.28829 10.3948 8.32443 10.393C8.36058 10.3911 8.39596 10.3819 8.4284 10.3659C8.46084 10.3498 8.48965 10.3273 8.51306 10.2997L13.0236 5.05882C13.0722 5.00275 13.1409 4.96817 13.2148 4.96264C13.2888 4.9571 13.3619 4.98106 13.4183 5.02927L14.903 6.30718C14.9591 6.35572 14.9936 6.42448 14.9992 6.49844C15.0047 6.57239 14.9808 6.64553 14.9325 6.70188L8.69949 13.9444Z" fill="white"/>
</g>
<defs>
<clipPath id="clip0_358_2066">
<rect width="11" height="11" fill="white" transform="translate(4 4)"/>
</clipPath>
</defs>
</svg>
