<svg width="16" height="16" viewBox="0 0 16 16" fill="none" xmlns="http://www.w3.org/2000/svg">
<g clip-path="url(#clip0_358_1585)">
<path d="M7.99896 15.7333C12.27 15.7333 15.7323 12.271 15.7323 8C15.7323 3.72899 12.27 0.266663 7.99896 0.266663C3.72796 0.266663 0.265625 3.72899 0.265625 8C0.265625 12.271 3.72796 15.7333 7.99896 15.7333Z" fill="#5EDD60"/>
<path d="M6.46853 11.2187L4.6552 9.44748C4.61598 9.40936 4.5848 9.36376 4.56351 9.31337C4.54222 9.26299 4.53125 9.20885 4.53125 9.15415C4.53125 9.09945 4.54222 9.04531 4.56351 8.99493C4.5848 8.94454 4.61598 8.89894 4.6552 8.86082L5.25653 8.27415C5.33717 8.19602 5.44505 8.15233 5.55733 8.15233C5.66962 8.15233 5.7775 8.19602 5.85813 8.27415L6.9376 9.32935L9.96507 4.72668C10.0275 4.63381 10.1237 4.56886 10.2331 4.54557C10.3426 4.52228 10.4569 4.54248 10.5517 4.60188L11.2675 5.05148C11.3142 5.08023 11.3547 5.11807 11.3866 5.16276C11.4184 5.20745 11.441 5.25809 11.4529 5.31166C11.4648 5.36523 11.4658 5.42064 11.4559 5.47462C11.446 5.5286 11.4254 5.58004 11.3952 5.62588L7.8104 11.0776C7.73857 11.1843 7.64421 11.274 7.53398 11.3403C7.42375 11.4066 7.30033 11.4479 7.1724 11.4614C7.04447 11.4748 6.91514 11.4601 6.79353 11.4181C6.67193 11.3762 6.56099 11.3081 6.46853 11.2187Z" fill="white"/>
</g>
<defs>
<clipPath id="clip0_358_1585">
<rect width="16" height="16" fill="white"/>
</clipPath>
</defs>
</svg>
