<svg width="19" height="18" viewBox="0 0 19 18" fill="none" xmlns="http://www.w3.org/2000/svg">
<path d="M9 16H4C2.9 16 2 15.1 2 14V4C2 2.9 2.9 2 4 2H9C9.55 2 10 1.55 10 1C10 0.45 9.55 0 9 0H4C1.79 0 0 1.79 0 4V14C0 16.21 1.79 18 4 18H9C9.55 18 10 17.55 10 17C10 16.45 9.55 16 9 16Z" fill="#2B286C"/>
<path d="M17.71 8.29001L14.71 5.29001C14.6174 5.19742 14.5075 5.12399 14.3865 5.07388C14.2656 5.02378 14.1359 4.99799 14.005 4.99799C13.8741 4.99799 13.7444 5.02378 13.6235 5.07388C13.5025 5.12399 13.3926 5.19742 13.3 5.29001C13.2074 5.38259 13.134 5.4925 13.0839 5.61346C13.0338 5.73443 13.008 5.86408 13.008 5.99501C13.008 6.12594 13.0338 6.25559 13.0839 6.37655C13.134 6.49751 13.2074 6.60742 13.3 6.70001L14.59 7.99001H6C5.45 7.99001 5 8.44001 5 8.99001C5 9.54001 5.45 9.99001 6 9.99001H14.59L13.3 11.28C13.1605 11.4197 13.0656 11.5976 13.0274 11.7913C12.9892 11.985 13.0094 12.1857 13.0855 12.3679C13.1616 12.55 13.2901 12.7055 13.4547 12.8145C13.6193 12.9235 13.8126 12.9811 14.01 12.98C14.27 12.98 14.52 12.88 14.72 12.69L17.72 9.69001C17.8127 9.59749 17.8863 9.4876 17.9364 9.36663C17.9866 9.24566 18.0124 9.11598 18.0124 8.98501C18.0124 8.85404 17.9866 8.72436 17.9364 8.60338C17.8863 8.48241 17.8127 8.37252 17.72 8.28001L17.71 8.29001Z" fill="#2B286C"/>
</svg>
