<svg width="15" height="15" viewBox="0 0 15 15" fill="none" xmlns="http://www.w3.org/2000/svg">
<g clip-path="url(#clip0_342_216)">
<path d="M14.3127 0.97875C14.2617 0.87286 14.1819 0.7835 14.0824 0.720928C13.9829 0.658355 13.8678 0.625107 13.7502 0.625H1.25023C1.13247 0.624956 1.01708 0.658187 0.917374 0.720865C0.817668 0.783542 0.737699 0.873115 0.686684 0.979261C0.635668 1.08541 0.615681 1.20381 0.629026 1.32082C0.64237 1.43783 0.688504 1.54869 0.76211 1.64063L5.62524 7.71937V13.75C5.6252 13.8736 5.66182 13.9944 5.73046 14.0972C5.7991 14.2 5.89668 14.2802 6.01086 14.3275C6.08669 14.3591 6.16808 14.3753 6.25024 14.375C6.41598 14.375 6.57493 14.3091 6.69211 14.1919L9.19211 11.6919C9.30933 11.5747 9.3752 11.4157 9.37524 11.25V7.71937L14.2384 1.64063C14.3119 1.54854 14.3579 1.43753 14.3711 1.32042C14.3842 1.20331 14.364 1.08486 14.3127 0.97875Z" fill="#3D3D4B"/>
</g>
<defs>
<clipPath id="clip0_342_216">
<rect width="15" height="15" fill="white"/>
</clipPath>
</defs>
</svg>
