<svg width="21" height="19" viewBox="0 0 21 19" fill="none" xmlns="http://www.w3.org/2000/svg">
<path d="M18.3759 2.96771H5.25551C4.53089 2.96771 3.94347 3.49919 3.94347 4.1548C3.94347 4.8104 4.53089 5.34188 5.25551 5.34188H18.3759C19.1005 5.34188 19.6879 4.8104 19.6879 4.1548C19.6879 3.49919 19.1005 2.96771 18.3759 2.96771ZM2.63143 4.1548C2.62994 3.84047 2.49075 3.53951 2.24438 3.3179C1.73264 2.85765 0.906137 2.85765 0.394401 3.3179C0.147993 3.53949 0.00879621 3.84047 0.0073494 4.1548C-0.0024498 4.2317 -0.0024498 4.30937 0.0073494 4.38628C0.0221879 4.46362 0.0463875 4.53926 0.0795115 4.61182C0.114737 4.68213 0.156432 4.74964 0.204155 4.81363C0.251261 4.88017 0.306255 4.94187 0.36816 4.99762C0.427856 5.05143 0.493846 5.09919 0.564966 5.14007C0.634064 5.1856 0.708948 5.22346 0.788013 5.25285C0.874981 5.29366 0.96767 5.32361 1.06354 5.34188C1.14856 5.35048 1.23437 5.35048 1.31939 5.34188C1.66586 5.34213 1.99838 5.21838 2.24438 4.99762C2.30628 4.94187 2.36127 4.88017 2.40838 4.81363C2.4561 4.74964 2.4978 4.68213 2.53302 4.61182C2.57489 4.54014 2.60789 4.4645 2.63143 4.38628C2.64123 4.30937 2.64123 4.2317 2.63143 4.1548ZM2.63143 9.49667C2.64119 9.41976 2.64119 9.34209 2.63143 9.26519C2.60876 9.18859 2.57571 9.11483 2.53302 9.04558C2.49922 8.97275 2.45747 8.90316 2.40838 8.83784C2.3629 8.77202 2.30773 8.71212 2.24438 8.65977C1.73264 8.19952 0.906137 8.19952 0.394401 8.65977C0.147993 8.88136 0.00879621 9.18234 0.0073494 9.49667C0.0098978 9.65309 0.0432191 9.80785 0.105752 9.95369C0.138637 10.0239 0.178145 10.0914 0.223836 10.1555C0.273739 10.22 0.3309 10.2797 0.394401 10.3336C0.452364 10.3908 0.518557 10.4407 0.591207 10.4819C0.66028 10.5275 0.735169 10.5654 0.814253 10.5947C0.894259 10.6252 0.977921 10.6471 1.06354 10.66C1.14747 10.677 1.23337 10.685 1.31939 10.6837C1.40438 10.6926 1.49024 10.6926 1.57524 10.6837C1.65873 10.6708 1.74021 10.6489 1.81796 10.6185C1.8992 10.5893 1.97628 10.5514 2.04757 10.5057C2.12022 10.4644 2.18641 10.4145 2.24438 10.3573C2.30761 10.3049 2.36277 10.245 2.40838 10.1792C2.45881 10.1168 2.50067 10.049 2.53302 9.97744C2.57784 9.89863 2.61093 9.81481 2.63143 9.72815C2.64151 9.65126 2.64151 9.57356 2.63143 9.49667ZM2.63143 14.8385C2.64114 14.7616 2.64114 14.684 2.63143 14.6071C2.60875 14.5286 2.57571 14.4528 2.53302 14.3815C2.4978 14.3112 2.4561 14.2437 2.40838 14.1797C2.36277 14.114 2.30761 14.0541 2.24438 14.0016C1.73264 13.5414 0.906137 13.5414 0.394401 14.0016C0.331167 14.0541 0.276006 14.114 0.230396 14.1797C0.182673 14.2437 0.140978 14.3112 0.105752 14.3815C0.0717214 14.4538 0.0474909 14.5295 0.0335902 14.6071C0.0151132 14.6831 0.00630906 14.7607 0.0073494 14.8385C0.0088321 15.1529 0.148023 15.4538 0.394401 15.6754C0.452364 15.7326 0.518557 15.7826 0.591207 15.8238C0.66028 15.8694 0.735169 15.9072 0.814253 15.9366C0.894259 15.9671 0.977921 15.989 1.06354 16.0019C1.14747 16.0189 1.23337 16.0269 1.31939 16.0256C1.40438 16.0345 1.49024 16.0345 1.57524 16.0256C1.65873 16.0127 1.74021 15.9908 1.81796 15.9603C1.8992 15.9312 1.97628 15.8933 2.04757 15.8476C2.12022 15.8063 2.18641 15.7564 2.24438 15.6992C2.30761 15.6467 2.36277 15.5868 2.40838 15.5211C2.45885 15.4587 2.50071 15.3909 2.53302 15.3193C2.5778 15.2405 2.61088 15.1567 2.63143 15.07C2.64151 14.9931 2.64151 14.9154 2.63143 14.8385ZM19.6879 8.30958H5.25551C4.53089 8.30958 3.94347 8.84106 3.94347 9.49667C3.94347 10.1523 4.53089 10.6837 5.25551 10.6837H19.6879C20.4125 10.6837 21 10.1523 21 9.49667C21 8.84106 20.4125 8.30958 19.6879 8.30958ZM13.7838 13.6515H5.25551C4.53089 13.6515 3.94347 14.1829 3.94347 14.8385C3.94347 15.4941 4.53089 16.0256 5.25551 16.0256H13.7838C14.5084 16.0256 15.0958 15.4941 15.0958 14.8385C15.0958 14.1829 14.5084 13.6515 13.7838 13.6515Z" fill="#323232"/>
</svg>
