<svg width="19" height="14" viewBox="0 0 19 14" fill="none" xmlns="http://www.w3.org/2000/svg">
<path d="M16.6258 0H4.75499C4.09938 0 3.5679 0.531479 3.5679 1.18708C3.5679 1.84269 4.09938 2.37417 4.75499 2.37417H16.6258C17.2814 2.37417 17.8129 1.84269 17.8129 1.18708C17.8129 0.531479 17.2814 0 16.6258 0ZM2.38082 1.18708C2.37948 0.87276 2.25354 0.571798 2.03063 0.350189C1.56763 -0.110065 0.819839 -0.110065 0.356839 0.350189C0.133898 0.571779 0.00795849 0.872754 0.00664947 1.18708C-0.00221649 1.26399 -0.00221649 1.34166 0.00664947 1.41856C0.0200748 1.49591 0.0419697 1.57155 0.0719391 1.64411C0.10381 1.71442 0.141534 1.78192 0.184712 1.84591C0.227332 1.91246 0.277088 1.97416 0.333098 2.02991C0.387108 2.08371 0.446814 2.13148 0.51116 2.17236C0.573678 2.21788 0.64143 2.25575 0.712965 2.28513C0.791651 2.32595 0.875512 2.3559 0.962252 2.37417C1.03917 2.38277 1.11681 2.38277 1.19373 2.37417C1.50721 2.37442 1.80806 2.25067 2.03063 2.02991C2.08664 1.97416 2.13639 1.91246 2.17901 1.84591C2.22219 1.78192 2.25992 1.71442 2.29179 1.64411C2.32967 1.57243 2.35953 1.49679 2.38082 1.41856C2.38968 1.34166 2.38968 1.26399 2.38082 1.18708ZM2.38082 6.52895C2.38965 6.45205 2.38965 6.37438 2.38082 6.29747C2.36031 6.22088 2.3304 6.14712 2.29179 6.07786C2.2612 6.00504 2.22343 5.93544 2.17901 5.87012C2.13787 5.80431 2.08794 5.7444 2.03063 5.69206C1.56763 5.23181 0.819839 5.23181 0.356839 5.69206C0.133898 5.91365 0.00795849 6.21463 0.00664947 6.52895C0.00895517 6.68537 0.0391031 6.84013 0.0956808 6.98598C0.125434 7.05619 0.161179 7.12371 0.202518 7.18779C0.247669 7.25231 0.299386 7.31198 0.356839 7.36585C0.409282 7.42306 0.469172 7.47297 0.534902 7.51423C0.597397 7.55979 0.665154 7.59766 0.736706 7.62701C0.809093 7.65747 0.884787 7.67938 0.962252 7.6923C1.03819 7.70932 1.11591 7.7173 1.19373 7.71604C1.27063 7.7249 1.34831 7.7249 1.42522 7.71604C1.50076 7.70309 1.57448 7.68117 1.64483 7.65075C1.71832 7.62158 1.78807 7.58372 1.85257 7.53798C1.9183 7.49671 1.97819 7.4468 2.03063 7.38959C2.08784 7.33715 2.13775 7.27726 2.17901 7.21153C2.22464 7.14908 2.26251 7.08131 2.29179 7.00972C2.33233 6.93092 2.36227 6.8471 2.38082 6.76044C2.38994 6.68354 2.38994 6.60584 2.38082 6.52895ZM2.38082 11.8708C2.38961 11.7939 2.38961 11.7163 2.38082 11.6393C2.3603 11.5609 2.33041 11.4851 2.29179 11.4138C2.25992 11.3435 2.22219 11.276 2.17901 11.212C2.13775 11.1463 2.08784 11.0864 2.03063 11.0339C1.56763 10.5737 0.819839 10.5737 0.356839 11.0339C0.299628 11.0864 0.24972 11.1463 0.208454 11.212C0.165276 11.276 0.127552 11.3435 0.0956808 11.4138C0.0648909 11.4861 0.042968 11.5618 0.0303912 11.6393C0.0136739 11.7153 0.0057082 11.793 0.00664947 11.8708C0.00799095 12.1851 0.133926 12.4861 0.356839 12.7077C0.409282 12.7649 0.469172 12.8148 0.534902 12.8561C0.597397 12.9017 0.665154 12.9395 0.736706 12.9689C0.809093 12.9993 0.884787 13.0213 0.962252 13.0342C1.03819 13.0512 1.11591 13.0592 1.19373 13.0579C1.27063 13.0668 1.34831 13.0668 1.42522 13.0579C1.50076 13.045 1.57448 13.023 1.64483 12.9926C1.71832 12.9634 1.78807 12.9256 1.85257 12.8798C1.9183 12.8386 1.97819 12.7887 2.03063 12.7315C2.08784 12.679 2.13775 12.6191 2.17901 12.5534C2.22468 12.491 2.26255 12.4232 2.29179 12.3516C2.3323 12.2728 2.36223 12.189 2.38082 12.1023C2.38994 12.0254 2.38994 11.9477 2.38082 11.8708ZM17.8129 5.34187H4.75499C4.09938 5.34187 3.5679 5.87335 3.5679 6.52895C3.5679 7.18456 4.09938 7.71604 4.75499 7.71604H17.8129C18.4685 7.71604 19 7.18456 19 6.52895C19 5.87335 18.4685 5.34187 17.8129 5.34187ZM12.471 10.6837H4.75499C4.09938 10.6837 3.5679 11.2152 3.5679 11.8708C3.5679 12.5264 4.09938 13.0579 4.75499 13.0579H12.471C13.1266 13.0579 13.6581 12.5264 13.6581 11.8708C13.6581 11.2152 13.1266 10.6837 12.471 10.6837Z" fill="#2B286C"/>
</svg>
