<svg width="19" height="21" viewBox="0 0 19 21" fill="none" xmlns="http://www.w3.org/2000/svg">
<path d="M14.8461 6.45368H11.0668C10.9101 6.45368 10.7599 6.5159 10.6491 6.62667C10.5384 6.73743 10.4761 6.88766 10.4761 7.0443C10.4761 7.20094 10.5384 7.35117 10.6491 7.46194C10.7599 7.5727 10.9101 7.63493 11.0668 7.63493H14.8461C15.0027 7.63493 15.153 7.5727 15.2637 7.46194C15.3745 7.35117 15.4367 7.20094 15.4367 7.0443C15.4367 6.88766 15.3745 6.73743 15.2637 6.62667C15.153 6.5159 15.0027 6.45368 14.8461 6.45368ZM8.2941 5.82958L7.09776 7.02593L6.55438 6.48189C6.50001 6.4251 6.43484 6.37973 6.36271 6.34845C6.29057 6.31717 6.21292 6.3006 6.13429 6.29973C6.05567 6.29886 5.97767 6.31369 5.90485 6.34336C5.83204 6.37303 5.76588 6.41694 5.71026 6.47252C5.65464 6.5281 5.61068 6.59422 5.58095 6.66701C5.55122 6.7398 5.53633 6.81779 5.53714 6.89641C5.53795 6.97504 5.55445 7.05271 5.58568 7.12487C5.6169 7.19703 5.66222 7.26223 5.71897 7.31664L6.64429 8.24196C6.75519 8.35483 6.9396 8.43227 7.09776 8.43227C7.2546 8.43227 7.43835 8.35614 7.54926 8.24524L9.13016 6.66368C9.36116 6.43268 9.36116 6.05927 9.13016 5.82893C8.89916 5.59858 8.5251 5.59858 8.2941 5.82958ZM14.8461 10.6196H11.0668C10.9101 10.6196 10.7599 10.6818 10.6491 10.7925C10.5384 10.9033 10.4761 11.0535 10.4761 11.2102C10.4761 11.3668 10.5384 11.517 10.6491 11.6278C10.7599 11.7386 10.9101 11.8008 11.0668 11.8008H14.8461C15.0027 11.8008 15.153 11.7386 15.2637 11.6278C15.3745 11.517 15.4367 11.3668 15.4367 11.2102C15.4367 11.0535 15.3745 10.9033 15.2637 10.7925C15.153 10.6818 15.0027 10.6196 14.8461 10.6196ZM8.2941 9.9948L7.09776 11.1911L6.55438 10.6471C6.50001 10.5903 6.43484 10.5449 6.36271 10.5137C6.29057 10.4824 6.21292 10.4658 6.13429 10.4649C6.05567 10.4641 5.97767 10.4789 5.90485 10.5086C5.83204 10.5383 5.76588 10.5822 5.71026 10.6377C5.65464 10.6933 5.61068 10.7594 5.58095 10.8322C5.55122 10.905 5.53633 10.983 5.53714 11.0616C5.53795 11.1403 5.55445 11.2179 5.58568 11.2901C5.6169 11.3622 5.66222 11.4274 5.71897 11.4819L6.64429 12.4072C6.75519 12.5201 6.9396 12.5975 7.09776 12.5975C7.2546 12.5975 7.43835 12.5214 7.54926 12.4105L9.13016 10.8289C9.36116 10.5979 9.36116 10.2245 9.13016 9.99414C8.89916 9.7638 8.5251 9.7638 8.2941 9.9948Z" fill="black"/>
<path d="M15.6778 0.72168H5.30447C3.89353 0.72168 2.74509 1.87012 2.74509 3.28105V3.4648H2.55938C1.14844 3.4648 0 4.61324 0 6.02418V17.7186C0 19.1295 1.14844 20.2779 2.55938 20.2779H12.9353C14.3463 20.2779 15.4947 19.1295 15.4947 17.7186V17.5315H15.6778C17.0888 17.5315 18.2372 16.3831 18.2372 14.9721V3.28105C18.2365 2.60248 17.9666 1.9519 17.4868 1.47207C17.007 0.992245 16.3564 0.722375 15.6778 0.72168ZM14.3128 17.7186C14.3128 18.4785 13.6953 19.0967 12.9347 19.0967H2.55938C1.79944 19.0967 1.18125 18.4785 1.18125 17.7186V6.02418C1.18125 5.26424 1.79878 4.64605 2.55938 4.64605H2.74509V14.9721C2.74509 16.3831 3.89353 17.5315 5.30447 17.5315H14.3128V17.7186ZM17.0559 14.9721C17.0559 15.7321 16.4384 16.3503 15.6778 16.3503H5.30447C4.54453 16.3503 3.92634 15.7321 3.92634 14.9721V3.28105C3.92634 2.52112 4.54388 1.90293 5.30447 1.90293H15.6778C16.4378 1.90293 17.0559 2.52112 17.0559 3.28105V14.9721Z" fill="black"/>
</svg>
