<svg width="19" height="20" viewBox="0 0 19 20" fill="none" xmlns="http://www.w3.org/2000/svg">
<path d="M14.8481 5.73163H11.0687C10.9121 5.73163 10.7618 5.79386 10.6511 5.90462C10.5403 6.01538 10.4781 6.16561 10.4781 6.32226C10.4781 6.4789 10.5403 6.62913 10.6511 6.73989C10.7618 6.85065 10.9121 6.91288 11.0687 6.91288H14.8481C15.0047 6.91288 15.1549 6.85065 15.2657 6.73989C15.3765 6.62913 15.4387 6.4789 15.4387 6.32226C15.4387 6.16561 15.3765 6.01538 15.2657 5.90462C15.1549 5.79386 15.0047 5.73163 14.8481 5.73163ZM8.29605 5.10754L7.09971 6.30388L6.55633 5.75985C6.50196 5.70305 6.4368 5.65768 6.36466 5.6264C6.29252 5.59512 6.21487 5.57856 6.13625 5.57768C6.05762 5.57681 5.97962 5.59165 5.90681 5.62132C5.83399 5.65099 5.76784 5.6949 5.71222 5.75047C5.6566 5.80605 5.61263 5.87217 5.58291 5.94496C5.55318 6.01775 5.53828 6.09574 5.53909 6.17437C5.53991 6.25299 5.55641 6.33066 5.58763 6.40282C5.61886 6.47498 5.66417 6.54018 5.72093 6.5946L6.64624 7.51991C6.75715 7.63279 6.94155 7.71022 7.09971 7.71022C7.25655 7.71022 7.4403 7.6341 7.55121 7.52319L9.13212 5.94163C9.36312 5.71063 9.36312 5.33722 9.13212 5.10688C8.90112 4.87654 8.52705 4.87654 8.29605 5.10754ZM14.8481 9.8975H11.0687C10.9121 9.8975 10.7618 9.95973 10.6511 10.0705C10.5403 10.1813 10.4781 10.3315 10.4781 10.4881C10.4781 10.6448 10.5403 10.795 10.6511 10.9058C10.7618 11.0165 10.9121 11.0788 11.0687 11.0788H14.8481C15.0047 11.0788 15.1549 11.0165 15.2657 10.9058C15.3765 10.795 15.4387 10.6448 15.4387 10.4881C15.4387 10.3315 15.3765 10.1813 15.2657 10.0705C15.1549 9.95973 15.0047 9.8975 14.8481 9.8975ZM8.29605 9.27276L7.09971 10.4691L6.55633 9.92507C6.50196 9.86827 6.4368 9.8229 6.36466 9.79162C6.29252 9.76034 6.21487 9.74378 6.13625 9.7429C6.05762 9.74203 5.97962 9.75686 5.90681 9.78654C5.83399 9.81621 5.76784 9.86012 5.71222 9.91569C5.6566 9.97127 5.61263 10.0374 5.58291 10.1102C5.55318 10.183 5.53828 10.261 5.53909 10.3396C5.53991 10.4182 5.55641 10.4959 5.58763 10.568C5.61886 10.6402 5.66417 10.7054 5.72093 10.7598L6.64624 11.6851C6.75715 11.798 6.94155 11.8754 7.09971 11.8754C7.25655 11.8754 7.4403 11.7993 7.55121 11.6884L9.13212 10.1068C9.36312 9.87585 9.36312 9.50244 9.13212 9.2721C8.90112 9.04176 8.52705 9.04175 8.29605 9.27276Z" fill="#2B286C"/>
<path d="M15.6778 0H5.30447C3.89353 0 2.74509 1.14844 2.74509 2.55937V2.74312H2.55938C1.14844 2.74312 0 3.89156 0 5.3025V16.9969C0 18.4078 1.14844 19.5562 2.55938 19.5562H12.9353C14.3463 19.5562 15.4947 18.4078 15.4947 16.9969V16.8098H15.6778C17.0888 16.8098 18.2372 15.6614 18.2372 14.2505V2.55937C18.2365 1.8808 17.9666 1.23022 17.4868 0.750391C17.007 0.270566 16.3564 0.000694906 15.6778 0ZM14.3128 16.9969C14.3128 17.7568 13.6953 18.375 12.9347 18.375H2.55938C1.79944 18.375 1.18125 17.7568 1.18125 16.9969V5.3025C1.18125 4.54256 1.79878 3.92437 2.55938 3.92437H2.74509V14.2505C2.74509 15.6614 3.89353 16.8098 5.30447 16.8098H14.3128V16.9969ZM17.0559 14.2505C17.0559 15.0104 16.4384 15.6286 15.6778 15.6286H5.30447C4.54453 15.6286 3.92634 15.0104 3.92634 14.2505V2.55937C3.92634 1.79944 4.54388 1.18125 5.30447 1.18125H15.6778C16.4378 1.18125 17.0559 1.79944 17.0559 2.55937V14.2505Z" fill="#2B286C"/>
</svg>
