<svg width="51" height="51" viewBox="0 0 51 51" fill="none" xmlns="http://www.w3.org/2000/svg">
<g clip-path="url(#clip0_593_1099)">
<path d="M25.5 0C11.4387 0 0 11.4387 0 25.5C0 39.5613 11.4387 51 25.5 51C39.5613 51 51 39.5613 51 25.5C51 11.4387 39.5613 0 25.5 0ZM36.6562 27.6249H27.6249V36.6562C27.6249 37.8293 26.6731 38.7811 25.5 38.7811C24.3269 38.7811 23.3751 37.8293 23.3751 36.6562V27.6249H14.3438C13.1707 27.6249 12.2189 26.6731 12.2189 25.5C12.2189 24.3269 13.1707 23.3751 14.3438 23.3751H23.3751V14.3438C23.3751 13.1707 24.3269 12.2189 25.5 12.2189C26.6731 12.2189 27.6249 13.1707 27.6249 14.3438V23.3751H36.6562C37.8293 23.3751 38.7811 24.3269 38.7811 25.5C38.7811 26.6731 37.8293 27.6249 36.6562 27.6249Z" fill="#E2E2E2"/>
</g>
<defs>
<clipPath id="clip0_593_1099">
<rect width="51" height="51" fill="white"/>
</clipPath>
</defs>
</svg>
