<svg width="31" height="31" viewBox="0 0 31 31" fill="none" xmlns="http://www.w3.org/2000/svg">
<circle cx="15.5" cy="15.5" r="15" stroke="white" stroke-dasharray="4 4"/>
<g clip-path="url(#clip0_2031_281)">
<path d="M21.2354 13.7143H17.2857V9.76464C17.2857 8.79429 16.4707 8 15.5 8C14.5293 8 13.7143 8.79429 13.7143 9.76464V13.7143H9.76464C8.79429 13.7143 8 14.5293 8 15.5C8 16.4707 8.79429 17.2857 9.76464 17.2857H13.7143V21.2354C13.7143 22.2057 14.5293 23 15.5 23C16.4707 23 17.2857 22.2057 17.2857 21.2354V17.2857H21.2354C22.2057 17.2857 23 16.4707 23 15.5C23 14.5293 22.2057 13.7143 21.2354 13.7143Z" fill="white"/>
</g>
<defs>
<clipPath id="clip0_2031_281">
<rect width="15" height="15" fill="white" transform="translate(8 8)"/>
</clipPath>
</defs>
</svg>
