<svg width="19" height="19" viewBox="0 0 19 19" fill="none" xmlns="http://www.w3.org/2000/svg">
<path fill-rule="evenodd" clip-rule="evenodd" d="M9.18334 1.83667C7.93272 1.83623 6.7027 2.15506 5.60976 2.76296C4.51683 3.37085 3.59717 4.24769 2.93788 5.31041C2.2786 6.37314 1.90152 7.58658 1.84236 8.83579C1.7832 10.085 2.04391 11.3287 2.59981 12.4489C2.86796 12.9889 2.85511 13.6492 2.79817 14.1625C2.73664 14.719 2.59614 15.3114 2.44645 15.8367C2.37666 16.08 2.30411 16.3142 2.23248 16.53H9.18334C11.1318 16.53 13.0005 15.756 14.3782 14.3782C15.756 13.0004 16.53 11.1318 16.53 9.18333C16.53 7.23488 15.756 5.36622 14.3782 3.98846C13.0005 2.61069 11.1318 1.83667 9.18334 1.83667ZM0.0716383 17.0948L0.073475 17.0893L0.0844949 17.0636C0.150498 16.9024 0.21296 16.7398 0.271835 16.5759C0.391218 16.2499 0.545498 15.8064 0.680493 15.3334C0.814485 14.884 0.912143 14.4246 0.972523 13.9596C0.995481 13.7548 1.00007 13.5858 0.989972 13.4563C0.986656 13.4075 0.979595 13.359 0.96885 13.3112C0.961503 13.2791 0.955075 13.2653 0.955075 13.2653C0.325049 11.9969 -0.00188972 10.5996 8.21632e-06 9.18333C8.21632e-06 4.11138 4.11139 0 9.18334 0C14.2553 0 18.3667 4.11138 18.3667 9.18333C18.3667 14.2553 14.2553 18.3667 9.18334 18.3667H0.918342C0.767236 18.3666 0.618477 18.3293 0.485257 18.258C0.352037 18.1867 0.238472 18.0836 0.154633 17.9579C0.0707935 17.8321 0.0192707 17.6877 0.00463305 17.5373C-0.0100046 17.3869 0.0126954 17.2352 0.07072 17.0957L0.0716383 17.0948ZM9.31283 6.44486C9.04581 6.3987 8.77107 6.44865 8.53739 6.58584C8.3037 6.72302 8.12618 6.93857 8.03634 7.19422C7.99979 7.31225 7.93979 7.42169 7.85994 7.51599C7.7801 7.61028 7.68204 7.6875 7.57165 7.743C7.46126 7.79851 7.3408 7.83117 7.21749 7.83902C7.09418 7.84687 6.97055 7.82976 6.85401 7.78871C6.73746 7.74766 6.6304 7.68351 6.53924 7.6001C6.44807 7.5167 6.37468 7.41576 6.32344 7.30332C6.27221 7.19088 6.2442 7.06926 6.24108 6.94573C6.23796 6.82221 6.25979 6.69933 6.30528 6.58445C6.53855 5.91924 6.99988 5.35815 7.60744 5.00069C8.21501 4.64322 8.92954 4.51249 9.62431 4.63168C10.3191 4.75087 10.9492 5.11228 11.4029 5.6518C11.8566 6.19132 12.1045 6.87409 12.1027 7.57901C12.1027 8.75447 11.2331 9.50934 10.6609 9.89045C10.2828 10.1402 9.87655 10.3446 9.45058 10.4993L9.42394 10.5085L9.41476 10.5122H9.41201L9.41109 10.5131L9.11906 9.6425L9.41017 10.514C9.18014 10.5874 8.93047 10.5672 8.71519 10.4579C8.49992 10.3485 8.33637 10.1588 8.25994 9.92979C8.18352 9.70075 8.20037 9.45083 8.30684 9.23413C8.41332 9.01742 8.60086 8.85137 8.82886 8.77192H8.82703L8.83529 8.76917L8.88121 8.75172C9.14839 8.64963 9.40365 8.51876 9.64251 8.36142C10.1035 8.0547 10.2661 7.77828 10.2661 7.57809V7.57625C10.2664 7.30545 10.1709 7.04325 9.99644 6.83615C9.82196 6.62905 9.57977 6.49043 9.31283 6.44486ZM8.2246 12.3975C8.2246 12.1539 8.32135 11.9204 8.49358 11.7481C8.6658 11.5759 8.89938 11.4792 9.14293 11.4792H9.15212C9.39567 11.4792 9.62926 11.5759 9.80148 11.7481C9.9737 11.9204 10.0705 12.1539 10.0705 12.3975C10.0705 12.6411 9.9737 12.8746 9.80148 13.0469C9.62926 13.2191 9.39567 13.3158 9.15212 13.3158H9.14293C8.89938 13.3158 8.6658 13.2191 8.49358 13.0469C8.32135 12.8746 8.2246 12.6411 8.2246 12.3975Z" fill="#2B286C"/>
</svg>
