<svg width="16" height="16" viewBox="0 0 16 16" fill="none" xmlns="http://www.w3.org/2000/svg">
<g clip-path="url(#clip0_593_2023)">
<path d="M7.04606 0C3.16097 0 0 3.16097 0 7.04606C0 10.9314 3.16097 14.0921 7.04606 14.0921C10.9314 14.0921 14.0921 10.9314 14.0921 7.04606C14.0921 3.16097 10.9314 0 7.04606 0ZM7.04606 12.7913C3.87816 12.7913 1.30081 10.214 1.30081 7.04609C1.30081 3.87819 3.87816 1.30081 7.04606 1.30081C10.214 1.30081 12.7913 3.87816 12.7913 7.04606C12.7913 10.214 10.214 12.7913 7.04606 12.7913Z" fill="#B7B7E0"/>
<path d="M15.809 14.8897L12.08 11.1607C11.8259 10.9066 11.4144 10.9066 11.1603 11.1607C10.9062 11.4146 10.9062 11.8265 11.1603 12.0804L14.8893 15.8094C14.9496 15.8699 15.0213 15.9179 15.1002 15.9506C15.1791 15.9833 15.2637 16.0001 15.3491 16C15.4346 16.0001 15.5192 15.9833 15.5981 15.9506C15.677 15.9179 15.7487 15.8699 15.809 15.8094C16.0631 15.5555 16.0631 15.1436 15.809 14.8897Z" fill="#B7B7E0"/>
</g>
<defs>
<clipPath id="clip0_593_2023">
<rect width="16" height="16" fill="white"/>
</clipPath>
</defs>
</svg>
