<svg width="18" height="18" viewBox="0 0 18 18" fill="none" xmlns="http://www.w3.org/2000/svg">
<path d="M5.72727 7.91667H2.45455C1.80356 7.91667 1.17924 7.66645 0.71892 7.22105C0.258603 6.77565 0 6.17156 0 5.54167V2.375C0 1.74511 0.258603 1.14102 0.71892 0.695621C1.17924 0.250223 1.80356 0 2.45455 0H5.72727C6.37826 0 7.00258 0.250223 7.4629 0.695621C7.92322 1.14102 8.18182 1.74511 8.18182 2.375V5.54167C8.18182 6.17156 7.92322 6.77565 7.4629 7.22105C7.00258 7.66645 6.37826 7.91667 5.72727 7.91667ZM2.45455 1.58333C2.23755 1.58333 2.02944 1.66674 1.876 1.81521C1.72256 1.96367 1.63636 2.16504 1.63636 2.375V5.54167C1.63636 5.75163 1.72256 5.95299 1.876 6.10146C2.02944 6.24993 2.23755 6.33333 2.45455 6.33333H5.72727C5.94427 6.33333 6.15238 6.24993 6.30581 6.10146C6.45925 5.95299 6.54545 5.75163 6.54545 5.54167V2.375C6.54545 2.16504 6.45925 1.96367 6.30581 1.81521C6.15238 1.66674 5.94427 1.58333 5.72727 1.58333H2.45455ZM15.5455 7.91667H12.2727C11.6217 7.91667 10.9974 7.66645 10.5371 7.22105C10.0768 6.77565 9.81818 6.17156 9.81818 5.54167V2.375C9.81818 1.74511 10.0768 1.14102 10.5371 0.695621C10.9974 0.250223 11.6217 0 12.2727 0H15.5455C16.1964 0 16.8208 0.250223 17.2811 0.695621C17.7414 1.14102 18 1.74511 18 2.375V5.54167C18 6.17156 17.7414 6.77565 17.2811 7.22105C16.8208 7.66645 16.1964 7.91667 15.5455 7.91667ZM12.2727 1.58333C12.0557 1.58333 11.8476 1.66674 11.6942 1.81521C11.5407 1.96367 11.4545 2.16504 11.4545 2.375V5.54167C11.4545 5.75163 11.5407 5.95299 11.6942 6.10146C11.8476 6.24993 12.0557 6.33333 12.2727 6.33333H15.5455C15.7625 6.33333 15.9706 6.24993 16.124 6.10146C16.2774 5.95299 16.3636 5.75163 16.3636 5.54167V2.375C16.3636 2.16504 16.2774 1.96367 16.124 1.81521C15.9706 1.66674 15.7625 1.58333 15.5455 1.58333H12.2727ZM5.72727 17.4167H2.45455C1.80356 17.4167 1.17924 17.1664 0.71892 16.721C0.258603 16.2756 0 15.6716 0 15.0417V11.875C0 11.2451 0.258603 10.641 0.71892 10.1956C1.17924 9.75022 1.80356 9.5 2.45455 9.5H5.72727C6.37826 9.5 7.00258 9.75022 7.4629 10.1956C7.92322 10.641 8.18182 11.2451 8.18182 11.875V15.0417C8.18182 15.6716 7.92322 16.2756 7.4629 16.721C7.00258 17.1664 6.37826 17.4167 5.72727 17.4167ZM2.45455 11.0833C2.23755 11.0833 2.02944 11.1667 1.876 11.3152C1.72256 11.4637 1.63636 11.665 1.63636 11.875V15.0417C1.63636 15.2516 1.72256 15.453 1.876 15.6015C2.02944 15.7499 2.23755 15.8333 2.45455 15.8333H5.72727C5.94427 15.8333 6.15238 15.7499 6.30581 15.6015C6.45925 15.453 6.54545 15.2516 6.54545 15.0417V11.875C6.54545 11.665 6.45925 11.4637 6.30581 11.3152C6.15238 11.1667 5.94427 11.0833 5.72727 11.0833H2.45455ZM15.5455 17.4167H12.2727C11.6217 17.4167 10.9974 17.1664 10.5371 16.721C10.0768 16.2756 9.81818 15.6716 9.81818 15.0417V11.875C9.81818 11.2451 10.0768 10.641 10.5371 10.1956C10.9974 9.75022 11.6217 9.5 12.2727 9.5H15.5455C16.1964 9.5 16.8208 9.75022 17.2811 10.1956C17.7414 10.641 18 11.2451 18 11.875V15.0417C18 15.6716 17.7414 16.2756 17.2811 16.721C16.8208 17.1664 16.1964 17.4167 15.5455 17.4167ZM12.2727 11.0833C12.0557 11.0833 11.8476 11.1667 11.6942 11.3152C11.5407 11.4637 11.4545 11.665 11.4545 11.875V15.0417C11.4545 15.2516 11.5407 15.453 11.6942 15.6015C11.8476 15.7499 12.0557 15.8333 12.2727 15.8333H15.5455C15.7625 15.8333 15.9706 15.7499 16.124 15.6015C16.2774 15.453 16.3636 15.2516 16.3636 15.0417V11.875C16.3636 11.665 16.2774 11.4637 16.124 11.3152C15.9706 11.1667 15.7625 11.0833 15.5455 11.0833H12.2727Z" fill="#2B286C"/>
</svg>
