<svg width="23" height="23" viewBox="0 0 23 23" fill="none" xmlns="http://www.w3.org/2000/svg">
<g clip-path="url(#clip0_578_435)">
<path d="M7.66537 10.5418H3.83203C3.06953 10.5418 2.33827 10.2389 1.7991 9.69976C1.25993 9.1606 0.957031 8.42933 0.957031 7.66683V3.8335C0.957031 3.071 1.25993 2.33973 1.7991 1.80056C2.33827 1.2614 3.06953 0.958496 3.83203 0.958496H7.66537C8.42786 0.958496 9.15913 1.2614 9.6983 1.80056C10.2375 2.33973 10.5404 3.071 10.5404 3.8335V7.66683C10.5404 8.42933 10.2375 9.1606 9.6983 9.69976C9.15913 10.2389 8.42786 10.5418 7.66537 10.5418ZM3.83203 2.87516C3.57787 2.87516 3.33411 2.97613 3.15439 3.15585C2.97467 3.33557 2.8737 3.57933 2.8737 3.8335V7.66683C2.8737 7.921 2.97467 8.16475 3.15439 8.34447C3.33411 8.5242 3.57787 8.62516 3.83203 8.62516H7.66537C7.91953 8.62516 8.16329 8.5242 8.34301 8.34447C8.52273 8.16475 8.6237 7.921 8.6237 7.66683V3.8335C8.6237 3.57933 8.52273 3.33557 8.34301 3.15585C8.16329 2.97613 7.91953 2.87516 7.66537 2.87516H3.83203ZM19.1654 10.5418H15.332C14.5695 10.5418 13.8383 10.2389 13.2991 9.69976C12.7599 9.1606 12.457 8.42933 12.457 7.66683V3.8335C12.457 3.071 12.7599 2.33973 13.2991 1.80056C13.8383 1.2614 14.5695 0.958496 15.332 0.958496H19.1654C19.9279 0.958496 20.6591 1.2614 21.1983 1.80056C21.7375 2.33973 22.0404 3.071 22.0404 3.8335V7.66683C22.0404 8.42933 21.7375 9.1606 21.1983 9.69976C20.6591 10.2389 19.9279 10.5418 19.1654 10.5418ZM15.332 2.87516C15.0779 2.87516 14.8341 2.97613 14.6544 3.15585C14.4747 3.33557 14.3737 3.57933 14.3737 3.8335V7.66683C14.3737 7.921 14.4747 8.16475 14.6544 8.34447C14.8341 8.5242 15.0779 8.62516 15.332 8.62516H19.1654C19.4195 8.62516 19.6633 8.5242 19.843 8.34447C20.0227 8.16475 20.1237 7.921 20.1237 7.66683V3.8335C20.1237 3.57933 20.0227 3.33557 19.843 3.15585C19.6633 2.97613 19.4195 2.87516 19.1654 2.87516H15.332ZM7.66537 22.0418H3.83203C3.06953 22.0418 2.33827 21.7389 1.7991 21.1998C1.25993 20.6606 0.957031 19.9293 0.957031 19.1668V15.3335C0.957031 14.571 1.25993 13.8397 1.7991 13.3006C2.33827 12.7614 3.06953 12.4585 3.83203 12.4585H7.66537C8.42786 12.4585 9.15913 12.7614 9.6983 13.3006C10.2375 13.8397 10.5404 14.571 10.5404 15.3335V19.1668C10.5404 19.9293 10.2375 20.6606 9.6983 21.1998C9.15913 21.7389 8.42786 22.0418 7.66537 22.0418ZM3.83203 14.3752C3.57787 14.3752 3.33411 14.4761 3.15439 14.6559C2.97467 14.8356 2.8737 15.0793 2.8737 15.3335V19.1668C2.8737 19.421 2.97467 19.6648 3.15439 19.8445C3.33411 20.0242 3.57787 20.1252 3.83203 20.1252H7.66537C7.91953 20.1252 8.16329 20.0242 8.34301 19.8445C8.52273 19.6648 8.6237 19.421 8.6237 19.1668V15.3335C8.6237 15.0793 8.52273 14.8356 8.34301 14.6559C8.16329 14.4761 7.91953 14.3752 7.66537 14.3752H3.83203ZM19.1654 22.0418H15.332C14.5695 22.0418 13.8383 21.7389 13.2991 21.1998C12.7599 20.6606 12.457 19.9293 12.457 19.1668V15.3335C12.457 14.571 12.7599 13.8397 13.2991 13.3006C13.8383 12.7614 14.5695 12.4585 15.332 12.4585H19.1654C19.9279 12.4585 20.6591 12.7614 21.1983 13.3006C21.7375 13.8397 22.0404 14.571 22.0404 15.3335V19.1668C22.0404 19.9293 21.7375 20.6606 21.1983 21.1998C20.6591 21.7389 19.9279 22.0418 19.1654 22.0418ZM15.332 14.3752C15.0779 14.3752 14.8341 14.4761 14.6544 14.6559C14.4747 14.8356 14.3737 15.0793 14.3737 15.3335V19.1668C14.3737 19.421 14.4747 19.6648 14.6544 19.8445C14.8341 20.0242 15.0779 20.1252 15.332 20.1252H19.1654C19.4195 20.1252 19.6633 20.0242 19.843 19.8445C20.0227 19.6648 20.1237 19.421 20.1237 19.1668V15.3335C20.1237 15.0793 20.0227 14.8356 19.843 14.6559C19.6633 14.4761 19.4195 14.3752 19.1654 14.3752H15.332Z" fill="black"/>
</g>
<defs>
<clipPath id="clip0_578_435">
<rect width="23" height="23" fill="white"/>
</clipPath>
</defs>
</svg>
